<svg xmlns="http://www.w3.org/2000/svg" width="77.166" height="22.88" viewBox="0 0 77.166 22.88"><defs><style>.a{fill:#333132;}.b{fill:#cc231e;}.c{fill:#fff;}</style></defs><g transform="translate(-175.5 -40.001)"><path class="a" d="M185.225,42.055l.3-.239a4.483,4.483,0,0,1,2.073-.944,10.078,10.078,0,0,1,4.509.195,4.454,4.454,0,0,1,1.211.537,3.348,3.348,0,0,1,1.576,2.619,8.535,8.535,0,0,1,.032.869q0,5.4,0,10.8c0,.119,0,.238-.005.358a.506.506,0,0,1-.408.521,2.248,2.248,0,0,1-1.262-.01.511.511,0,0,1-.389-.536c0-.154,0-.307,0-.461V45.016c0-.188,0-.376-.005-.563a1.686,1.686,0,0,0-.934-1.483,3.243,3.243,0,0,0-1.115-.356,7.442,7.442,0,0,0-2.8.07,3.494,3.494,0,0,0-.855.326,1.62,1.62,0,0,0-.885,1.4c-.011.2-.012.409-.012.614q0,5.372,0,10.744c0,.154.007.308-.006.461a.535.535,0,0,1-.451.546,2.418,2.418,0,0,1-1.166,0,.554.554,0,0,1-.459-.594c-.009-.153,0-.307,0-.461V44.98c0-.17,0-.341,0-.512a1.651,1.651,0,0,0-.914-1.491,3.184,3.184,0,0,0-1.113-.361,7.864,7.864,0,0,0-2.848.067,2.783,2.783,0,0,0-.941.385,1.619,1.619,0,0,0-.766,1.317c-.012.187-.007.375-.007.563q0,5.423,0,10.847c0,.136.005.273,0,.409a.536.536,0,0,1-.425.566,2.361,2.361,0,0,1-1.215,0,.521.521,0,0,1-.426-.509c-.007-.136-.01-.273-.01-.409q0-5.4,0-10.8a5.663,5.663,0,0,1,.152-1.471,3.176,3.176,0,0,1,1.414-1.933,5.96,5.96,0,0,1,2.2-.8,10.714,10.714,0,0,1,2.805-.1,5.106,5.106,0,0,1,2.992,1.186A1.888,1.888,0,0,0,185.225,42.055Z" transform="translate(0 -0.347)"/><path class="b" d="M287.1,42.581c.077.153.145.288.214.423a3.526,3.526,0,0,1,.4,1.469c.01.221.016.443.016.665q0,3.838,0,7.676c0,.154,0,.307-.008.461a.462.462,0,0,1-.35.454,2.19,2.19,0,0,1-1.308,0,.5.5,0,0,1-.364-.5c0-.137,0-.273,0-.409q0-3.89,0-7.778,0-.23,0-.461a1.665,1.665,0,0,0-.937-1.53,3.522,3.522,0,0,0-1.11-.374,8.4,8.4,0,0,0-3.4.076,2.8,2.8,0,0,0-.936.4,1.582,1.582,0,0,0-.747,1.22c-.016.187-.025.374-.025.561q0,3.352,0,6.7a6.41,6.41,0,0,0,.145,1.575,1.574,1.574,0,0,0,1.577,1.343c.255.02.511.016.767.021.887.02,1.773.028,2.659.063a5.811,5.811,0,0,1,1.743.371,3.205,3.205,0,0,1,2.237,2.735,6.378,6.378,0,0,1-.062,2.29,3.112,3.112,0,0,1-1.771,2.242,5.542,5.542,0,0,1-1.812.511,16.776,16.776,0,0,1-1.684.093c-1.706.011-3.412,0-5.118,0l-.409,0a.477.477,0,0,1-.495-.366,1.92,1.92,0,0,1,0-1.06.461.461,0,0,1,.493-.363c.136,0,.273,0,.409,0q2.764,0,5.527,0a5.428,5.428,0,0,0,1.566-.2,3.266,3.266,0,0,0,.337-.118,1.581,1.581,0,0,0,1.027-1.409,7.88,7.88,0,0,0,0-1.277,1.588,1.588,0,0,0-1.075-1.428,4.761,4.761,0,0,0-1.7-.3c-.853-.01-1.706-.006-2.559-.006a5.543,5.543,0,0,1-1.464-.206,2.8,2.8,0,0,1-2.011-1.866,7.509,7.509,0,0,1-.366-2.416c-.016-.835,0-1.671,0-2.507q0-2.174,0-4.349a5.389,5.389,0,0,1,.162-1.367,3.108,3.108,0,0,1,1.469-1.948,6.4,6.4,0,0,1,2.153-.771,11.267,11.267,0,0,1,1.987-.145c1.109-.007,2.218,0,3.326,0a8.461,8.461,0,0,0,1.629-.133,3.774,3.774,0,0,0,1.332-.5c.274-.178.445-.221.761.106a2.166,2.166,0,0,1,.484.776.608.608,0,0,1-.19.737,2.584,2.584,0,0,1-.564.343,4.736,4.736,0,0,1-1.281.336A2.244,2.244,0,0,0,287.1,42.581Z" transform="translate(-49.518)"/><path class="a" d="M316.369,48.949q0,1.968,0,3.937a5.21,5.21,0,0,1-.136,1.318,3.159,3.159,0,0,1-1.443,1.968,6.144,6.144,0,0,1-2.349.82,10.755,10.755,0,0,1-3.814-.083,6.077,6.077,0,0,1-1.857-.7,3.159,3.159,0,0,1-1.592-2.374,6.607,6.607,0,0,1-.073-.967c-.006-2.642,0-5.285,0-7.927a5.208,5.208,0,0,1,.175-1.415,3.117,3.117,0,0,1,1.414-1.87,5.785,5.785,0,0,1,2.1-.776,10.928,10.928,0,0,1,4.217.072,5.86,5.86,0,0,1,1.708.664,3.206,3.206,0,0,1,1.616,2.527,7.479,7.479,0,0,1,.041.868C316.372,46.323,316.369,47.636,316.369,48.949Zm-2.071,0c0-1.449-.006-2.9,0-4.347a1.676,1.676,0,0,0-1.065-1.65,4.546,4.546,0,0,0-.822-.27,7.2,7.2,0,0,0-1.829-.157,7.287,7.287,0,0,0-1.574.162,3.138,3.138,0,0,0-1.125.468,1.552,1.552,0,0,0-.689,1.2c-.013.187-.016.375-.016.562q0,3.988,0,7.977c0,.17,0,.341.01.511A1.55,1.55,0,0,0,308,54.743a3.313,3.313,0,0,0,.8.335,8.41,8.41,0,0,0,3.146.152,5.4,5.4,0,0,0,.8-.162,2.553,2.553,0,0,0,.875-.409,1.593,1.593,0,0,0,.678-1.259c.006-.136,0-.273,0-.409Q314.3,50.969,314.3,48.95Z" transform="translate(-63.704 -0.349)"/><path class="a" d="M231.191,48.9q0,2,0,3.989a5.187,5.187,0,0,1-.133,1.318,3.154,3.154,0,0,1-1.4,1.939,6.085,6.085,0,0,1-2.392.848,10.779,10.779,0,0,1-3.814-.084,6.012,6.012,0,0,1-1.9-.725,3.14,3.14,0,0,1-1.539-2.3,6.679,6.679,0,0,1-.083-1.017c-.007-2.642,0-5.284,0-7.927a5.072,5.072,0,0,1,.191-1.465,3.116,3.116,0,0,1,1.359-1.793,5.724,5.724,0,0,1,2.14-.8,10.915,10.915,0,0,1,4.216.073,5.926,5.926,0,0,1,1.664.638,3.228,3.228,0,0,1,1.666,2.6,8.377,8.377,0,0,1,.033.868C231.193,46.341,231.191,47.62,231.191,48.9Zm-2.065.047v-.972q0-1.713,0-3.426a1.622,1.622,0,0,0-.932-1.528,4.253,4.253,0,0,0-.909-.328,7.014,7.014,0,0,0-1.828-.167,7.369,7.369,0,0,0-1.625.164,3.286,3.286,0,0,0-1.04.411,1.58,1.58,0,0,0-.771,1.257c-.014.187-.018.375-.018.562q0,4.014,0,8.028c0,.17.006.341.017.511a1.518,1.518,0,0,0,.765,1.258,3.383,3.383,0,0,0,.839.361,8.357,8.357,0,0,0,3.146.151,3.7,3.7,0,0,0,.8-.165,3.9,3.9,0,0,0,.83-.383,1.545,1.545,0,0,0,.724-1.284c.008-.136,0-.273,0-.409Z" transform="translate(-21.835 -0.348)"/><path class="a" d="M259.582,50.231q0,2.788,0,5.575c0,.136,0,.273,0,.409a.535.535,0,0,1-.47.576,2.457,2.457,0,0,1-1.117,0,.548.548,0,0,1-.471-.581c.005-.136,0-.273,0-.409q0-5.371,0-10.741c0-.188,0-.375,0-.563a1.658,1.658,0,0,0-.931-1.481,3.6,3.6,0,0,0-1.313-.4,9.192,9.192,0,0,0-3,.071,3.225,3.225,0,0,0-1,.368,1.606,1.606,0,0,0-.859,1.417c0,.17,0,.341,0,.512q0,5.4,0,10.792c0,.154,0,.307-.006.46a.553.553,0,0,1-.448.551,2.431,2.431,0,0,1-1.166,0,.55.55,0,0,1-.462-.589c-.006-.1,0-.2,0-.307q0-5.473,0-10.946a5.261,5.261,0,0,1,.163-1.366,3.131,3.131,0,0,1,1.471-1.946A5.808,5.808,0,0,1,252,40.881a10.95,10.95,0,0,1,4.217.072,5.926,5.926,0,0,1,1.664.638A3.229,3.229,0,0,1,259.55,44.2a7.817,7.817,0,0,1,.031.817Q259.584,47.622,259.582,50.231Z" transform="translate(-35.793 -0.349)"/><path class="a" d="M222.847,80.824c-.012.126-.024.208-.027.29-.01.319.027.456.483.5a1.2,1.2,0,0,0,.3-.021c.2-.032.364-.1.373-.342a.252.252,0,0,1,.025-.1.188.188,0,0,1,.211-.1.179.179,0,0,1,.167.164.592.592,0,0,1-.4.687,1.7,1.7,0,0,1-1.15,0,.608.608,0,0,1-.441-.569c-.016-.508-.017-1.018,0-1.527a.619.619,0,0,1,.492-.584,1.883,1.883,0,0,1,1.057-.013.57.57,0,0,1,.439.506c.007.05.008.1.01.153.025.611-.126.785-.738.859C223.4,80.754,223.148,80.787,222.847,80.824Zm-.008-.434a2.808,2.808,0,0,0,.941-.093.29.29,0,0,0,.167-.172.4.4,0,0,0-.352-.588,1.331,1.331,0,0,0-.354-.01c-.326.037-.411.132-.421.453C222.817,80.1,222.83,80.217,222.839,80.39Z" transform="translate(-23.043 -19.237)"/><path class="a" d="M187.382,81.477a2.352,2.352,0,0,1,.081-.314.191.191,0,0,1,.207-.116.213.213,0,0,1,.2.2.62.62,0,0,1-.445.667,1.723,1.723,0,0,1-1.1-.008.614.614,0,0,1-.453-.611c0-.476,0-.952,0-1.429a.615.615,0,0,1,.436-.623,1.79,1.79,0,0,1,1.154-.023.531.531,0,0,1,.385.437,1.693,1.693,0,0,1,.034.353c-.017.462-.177.64-.641.7-.3.04-.6.063-.926.131a2.994,2.994,0,0,0-.024.312c.01.3.09.4.375.447A1.089,1.089,0,0,0,187.382,81.477Zm-1.09-1.088c.186,0,.3.009.422,0a4.272,4.272,0,0,0,.453-.067c.19-.038.248-.115.261-.316.019-.3-.061-.424-.344-.459a2.141,2.141,0,0,0-.552.025.276.276,0,0,0-.247.281C186.279,80.017,186.289,80.184,186.292,80.389Z" transform="translate(-5.093 -19.236)"/><path class="a" d="M201.587,80.834a1.612,1.612,0,0,0-.033.2c-.009.471.131.608.6.584a1.743,1.743,0,0,0,.3-.052.275.275,0,0,0,.238-.233c.011-.067.011-.154.053-.191a.339.339,0,0,1,.222-.076.2.2,0,0,1,.131.129.572.572,0,0,1-.368.7,1.646,1.646,0,0,1-1.2-.007.566.566,0,0,1-.4-.543q-.008-.767,0-1.535a.584.584,0,0,1,.435-.569,1.813,1.813,0,0,1,1.108-.031.553.553,0,0,1,.43.514,2.283,2.283,0,0,1,.013.306c-.019.45-.162.614-.6.681-.219.033-.44.052-.66.08C201.78,80.8,201.7,80.816,201.587,80.834Zm-.031-.4c.345-.042.613-.067.878-.11.194-.032.251-.113.264-.313.019-.3-.057-.422-.343-.459a2.114,2.114,0,0,0-.551.022.271.271,0,0,0-.246.28C201.552,80.015,201.556,80.182,201.556,80.43Z" transform="translate(-12.601 -19.236)"/><path class="a" d="M234.162,80.84a1.95,1.95,0,0,0-.029.195c-.006.469.137.607.609.58a1.8,1.8,0,0,0,.3-.054.279.279,0,0,0,.236-.237c.011-.067.01-.156.051-.191a.335.335,0,0,1,.224-.069.2.2,0,0,1,.128.132.576.576,0,0,1-.373.7,1.673,1.673,0,0,1-1.154.01.592.592,0,0,1-.442-.567q-.015-.766,0-1.533a.59.59,0,0,1,.441-.567,1.824,1.824,0,0,1,1.108-.027.552.552,0,0,1,.428.516,2.708,2.708,0,0,1,.007.357.563.563,0,0,1-.549.619c-.252.043-.507.062-.761.094C234.321,80.8,234.257,80.821,234.162,80.84Zm-.026-.41c.346-.042.614-.067.879-.11.192-.031.252-.117.264-.314.019-.3-.061-.421-.347-.458a2.1,2.1,0,0,0-.552.023.27.27,0,0,0-.244.281C234.133,80.018,234.136,80.184,234.136,80.43Z" transform="translate(-28.611 -19.237)"/><path class="a" d="M180.118,77.611c.068,0,.167-.028.225.008a.307.307,0,0,1,.1.21c.021.184.02.369.027.52.115.125.218.063.315.065a4.044,4.044,0,0,1,.708.036.577.577,0,0,1,.507.563c.011.68,0,1.361-.012,2.041,0,.029-.033.057-.05.086-.287.035-.34.01-.347-.2-.011-.307-.006-.613-.007-.92,0-.238,0-.477,0-.715-.007-.429-.119-.542-.546-.543a1.3,1.3,0,0,0-.3.042.307.307,0,0,0-.278.316c-.011.118-.008.238-.008.357,0,.426,0,.852,0,1.278,0,.132-.026.263-.042.414-.113-.006-.213.017-.27-.022a.3.3,0,0,1-.1-.214c-.011-.34-.007-.681-.007-1.022,0-.614,0-1.227,0-1.841A.653.653,0,0,1,180.118,77.611Z" transform="translate(-2.227 -18.482)"/><path class="a" d="M261.878,80.592c0,.238.01.476,0,.714a.619.619,0,0,1-.5.624,1.716,1.716,0,0,1-.957,0,.606.606,0,0,1-.5-.622q-.021-.739,0-1.479a.6.6,0,0,1,.5-.625,1.779,1.779,0,0,1,.958,0,.616.616,0,0,1,.5.622C261.889,80.082,261.878,80.337,261.878,80.592Zm-.421-.019h.007c0-.187-.006-.375,0-.562.015-.368-.133-.443-.45-.483a1.169,1.169,0,0,0-.354.02c-.247.046-.323.13-.328.375-.008.392-.007.784,0,1.175s.1.494.47.513a1.622,1.622,0,0,0,.45-.062.26.26,0,0,0,.206-.261C261.462,81.05,261.458,80.812,261.458,80.573Z" transform="translate(-41.49 -19.239)"/><path class="a" d="M247.454,80.076a.322.322,0,0,1-.048-.084c-.028-.13,0-.3-.146-.36a1.937,1.937,0,0,0-.438-.106.414.414,0,0,0-.151.02.389.389,0,0,0-.294.577.351.351,0,0,0,.183.161c.141.056.294.083.441.126s.3.082.438.136a.648.648,0,0,1,.215.132.836.836,0,0,1-.186,1.193,1.567,1.567,0,0,1-1.242.021.614.614,0,0,1-.359-.758.191.191,0,0,1,.139-.117.522.522,0,0,1,.225.083c.02.011.021.063.024.1.011.118,0,.253.125.315a1.022,1.022,0,0,0,.338.1,1.2,1.2,0,0,0,.354-.019c.264-.05.343-.166.326-.427a.3.3,0,0,0-.183-.282,2.293,2.293,0,0,0-.288-.1c-.147-.043-.3-.073-.443-.119-.193-.062-.411-.112-.492-.326a1.067,1.067,0,0,1,0-.8.622.622,0,0,1,.472-.353,1.8,1.8,0,0,1,.81,0,.628.628,0,0,1,.53.653C247.811,80.09,247.743,80.135,247.454,80.076Z" transform="translate(-34.577 -19.241)"/><path class="a" d="M252.88,80.8c-.288.032-.524.047-.758.085-.2.033-.274.168-.251.429a.271.271,0,0,0,.294.283c.169.013.34.007.509.021a.16.16,0,0,1,.145.176c0,.1-.046.178-.139.181a4.317,4.317,0,0,1-.761-.02.512.512,0,0,1-.462-.53c-.048-.581.015-.876.747-.949q.278-.028.556-.066a.327.327,0,0,0,.091-.044c.015-.03.042-.059.044-.089.023-.534-.056-.618-.6-.633-.17,0-.34,0-.51-.01a.17.17,0,0,1-.163-.164.184.184,0,0,1,.174-.207,2.964,2.964,0,0,1,1.012.066.633.633,0,0,1,.513.668c.008.136,0,.272,0,.408a4.974,4.974,0,0,0,.089,1.369c.017.053-.05.156-.105.2a.185.185,0,0,1-.264-.068,1.7,1.7,0,0,1-.129-.381,2.436,2.436,0,0,1-.012-.356C252.9,81.066,252.893,80.966,252.88,80.8Z" transform="translate(-37.33 -19.291)"/><path class="a" d="M208.752,81.952c-.237.063-.357.013-.406-.176q-.1-.37-.2-.738a.352.352,0,0,0-.232-.252.36.36,0,0,0-.466.2c-.067.173-.1.359-.152.538a1.635,1.635,0,0,1-.137.38c-.032.051-.147.071-.224.071-.106,0-.142-.094-.123-.182a3.648,3.648,0,0,1,.381-1.223,3.957,3.957,0,0,1-.378-1.093.179.179,0,0,1,.074-.221.231.231,0,0,1,.3.11c.055.142.094.291.139.436.03.1.054.2.09.292a.351.351,0,0,0,.382.27.334.334,0,0,0,.34-.254c.058-.178.108-.358.164-.536a1.779,1.779,0,0,1,.087-.238.236.236,0,0,1,.271-.085.165.165,0,0,1,.087.212,3.172,3.172,0,0,1-.37,1.083A3.394,3.394,0,0,1,208.752,81.952Z" transform="translate(-15.389 -19.286)"/><path class="a" d="M195.69,81.931h-.34a3.08,3.08,0,0,1-.044-.356c0-.528.014-1.058-.007-1.585a.7.7,0,0,1,.726-.8,2.593,2.593,0,0,1,.71.033.6.6,0,0,1,.534.647c.013.614.008,1.228,0,1.842,0,.223-.048.244-.364.209a2.524,2.524,0,0,1-.047-.335q-.008-.793,0-1.586c0-.29-.079-.388-.38-.441a1.024,1.024,0,0,0-.305-.011c-.342.045-.46.132-.453.483.009.477,0,.955,0,1.432C195.719,81.61,195.7,81.759,195.69,81.931Z" transform="translate(-9.732 -19.257)"/><path class="a" d="M265.781,81.938a1.816,1.816,0,0,1-.067-.712c0-.511.009-1.022.027-1.533a.464.464,0,0,1,.283-.4,1.529,1.529,0,0,1,1.332-.013.52.52,0,0,1,.326.484c.006.681,0,1.363-.01,2.044,0,.029-.032.058-.057.1h-.307c-.011-.171-.028-.321-.029-.47,0-.477-.009-.955,0-1.432.007-.384-.161-.444-.456-.482a1.16,1.16,0,0,0-.355.021c-.245.046-.318.128-.322.381-.008.46,0,.921,0,1.381,0,.137.005.274-.008.409a.247.247,0,0,1-.079.175A.872.872,0,0,1,265.781,81.938Z" transform="translate(-44.342 -19.236)"/><path class="a" d="M227.976,79.285c.306-.031.347-.021.381.147.072.35.13.7.19,1.055.043.252.077.5.124.756a.639.639,0,0,0,.1.285.357.357,0,0,0,.255.124.327.327,0,0,0,.237-.154,1.718,1.718,0,0,0,.11-.443c.08-.47.152-.941.231-1.41a1.256,1.256,0,0,1,.08-.293c.049-.111.153-.123.26-.1a.156.156,0,0,1,.12.194q-.108.68-.225,1.36c-.04.235-.072.472-.13.7a.594.594,0,0,1-.691.536c-.485-.01-.643-.15-.725-.562-.133-.667-.227-1.342-.335-2.014A.846.846,0,0,1,227.976,79.285Z" transform="translate(-25.783 -19.289)"/><path class="a" d="M212.427,79.108a1.463,1.463,0,0,1-.306-.083.212.212,0,0,1-.085-.164.215.215,0,0,1,.091-.163,1.376,1.376,0,0,1,.292-.08c.016-.148.025-.282.047-.414a.172.172,0,0,1,.184-.141.163.163,0,0,1,.191.127c.024.132.031.267.049.436.115.016.228.028.339.047a.191.191,0,1,1-.019.381c-.1.006-.2.024-.313.038-.012.131-.029.248-.032.365,0,.306,0,.612,0,.919a2.059,2.059,0,0,0,.093.8.168.168,0,0,1-.1.209.218.218,0,0,1-.273-.062.77.77,0,0,1-.136-.482c0-.408,0-.817,0-1.225C212.444,79.454,212.434,79.286,212.427,79.108Z" transform="translate(-17.959 -18.709)"/><path class="a" d="M176.767,79.089a10.619,10.619,0,0,0-.02,1.188,2.189,2.189,0,0,0,.085.906.146.146,0,0,1-.107.2.29.29,0,0,1-.229-.025.471.471,0,0,1-.142-.258,4.339,4.339,0,0,1-.038-.558c-.014-.474.026-.95-.029-1.441l-.251-.053c-.094-.02-.164-.084-.147-.173a.314.314,0,0,1,.131-.188.856.856,0,0,1,.261-.059c.017-.137.028-.271.051-.4a.184.184,0,0,1,.166-.166.2.2,0,0,1,.23.153c.02.131.028.265.044.427a2.429,2.429,0,0,1,.306.034c.06.014.143.047.162.094a.741.741,0,0,1,.007.251Z" transform="translate(-0.19 -18.707)"/><path class="a" d="M257.15,79.271c0-.441,0-.883,0-1.324a.506.506,0,0,1,.031-.247.3.3,0,0,1,.2-.105.186.186,0,0,1,.151.1,1.429,1.429,0,0,1,.03.353c0,.678,0,1.357,0,2.036a2.124,2.124,0,0,0,.093.853.177.177,0,0,1-.126.239.219.219,0,0,1-.264-.1.833.833,0,0,1-.123-.485C257.151,80.153,257.15,79.711,257.15,79.271Z" transform="translate(-40.134 -18.479)"/><path class="a" d="M219.687,77.6c.134.009.233-.013.29.027a.293.293,0,0,1,.1.214c.008.733,0,1.467.008,2.2a2.219,2.219,0,0,0,.089.908.166.166,0,0,1-.1.212.2.2,0,0,1-.271-.055,1.287,1.287,0,0,1-.128-.379,3.888,3.888,0,0,1-.009-.511c0-.682,0-1.364,0-2.047C219.667,78,219.678,77.831,219.687,77.6Z" transform="translate(-21.708 -18.48)"/><path class="a" d="M239.611,77.647c.31-.042.359-.018.371.191.01.169.005.339.005.508,0,.543-.005,1.086,0,1.628a2.633,2.633,0,0,0,.086,1,.147.147,0,0,1-.113.2.316.316,0,0,1-.228-.032.388.388,0,0,1-.127-.21,1.459,1.459,0,0,1-.04-.352q0-1.323,0-2.646A1.874,1.874,0,0,1,239.611,77.647Z" transform="translate(-31.49 -18.496)"/><path class="c" d="M223.264,80.761c-.009-.173-.022-.291-.019-.409.009-.321.095-.416.42-.453a1.331,1.331,0,0,1,.354.01.4.4,0,0,1,.352.588.29.29,0,0,1-.167.172A2.808,2.808,0,0,1,223.264,80.761Z" transform="translate(-23.469 -19.608)"/></g></svg>